<svg width="40" height="40" viewBox="0 0 40 40" fill="none" xmlns="http://www.w3.org/2000/svg">
<path d="M19.9954 40.0028C8.96573 40.0028 -0.00463867 31.0287 -0.00463867 19.9991C-0.00463867 8.96943 8.96573 -0.00463867 19.9954 -0.00463867C31.025 -0.00463867 39.9991 8.96943 39.9991 19.9991C39.9991 31.0287 31.025 40.0028 19.9954 40.0028ZM19.9954 0.550917C9.27314 0.550917 0.547213 9.27314 0.547213 19.9991C0.547213 30.725 9.27314 39.4472 19.9991 39.4472C30.725 39.4472 39.4509 30.7213 39.4509 19.9991C39.4509 9.27684 30.7213 0.550917 19.9954 0.550917Z" fill="white"/>
<path d="M13.8555 26.2889C12.4518 26.1629 11.1222 26 9.88882 25.7963C9.87031 25.374 9.85549 24.9518 9.84438 24.5259C10.7147 24.6666 11.6333 24.7889 12.5888 24.8926L12.5666 23.4926C11.6073 23.3889 10.6888 23.2629 9.81105 23.1222C9.80364 22.6889 9.79623 22.2555 9.79253 21.8185C11.0407 22.0259 12.3777 22.1926 13.7888 22.3185C13.7777 21.7926 13.7777 21.2555 13.7777 20.7296C12.3666 20.6037 11.0259 20.4333 9.78142 20.2259C9.6666 20.2074 9.55179 20.1889 9.43697 20.1666C9.41105 20.1629 9.38142 20.1555 9.35549 20.1518C8.98882 20.0889 8.62956 20.0185 8.28512 19.9481C8.28512 19.9592 8.28512 19.9852 8.28512 19.9963C8.28512 20.5111 8.28512 21.0259 8.28512 21.5407C8.28882 21.5407 8.29253 21.5407 8.29253 21.5407C8.31475 23.4111 8.37031 25.2481 8.47401 27.0407C8.79623 27.1037 9.12586 27.1629 9.4629 27.2185C9.62586 27.2481 9.78882 27.274 9.95549 27.3037V27.3C11.1851 27.4963 12.5036 27.6629 13.8888 27.7814C13.8777 27.2926 13.8666 26.7926 13.8555 26.2889Z" fill="white"/>
<path d="M35.837 18.9815C34.6666 18.8963 33.3148 20.2 33.1592 22.7259C33.0407 24.8444 33.5666 26.1333 34.6777 26.1926C36.0407 26.2778 37.3333 24.8518 37.4629 22.2222C37.574 20.2481 36.8666 19.0518 35.837 18.9815ZM36.4592 22.7592C36.3407 23.9666 35.874 24.7926 35.2148 24.7926C34.8185 24.7926 34.4148 24.337 34.5074 22.5926C34.5925 21.1703 35.1296 20.4407 35.6925 20.4407C36.2814 20.4407 36.6037 21.2778 36.4592 22.7592Z" fill="white"/>
<path d="M4.76662 24.5963L7.59995 21.3963C7.59995 20.9296 7.59995 20.4629 7.59995 19.9963C7.59995 19.937 7.59995 19.8629 7.59995 19.8037C5.91477 19.4333 4.46662 18.9889 3.31847 18.537C3.30736 18.9926 3.30736 19.4926 3.30736 19.9963C3.30736 20.0185 3.30736 20.0444 3.30736 20.0815C4.08514 20.4222 5.01106 20.737 6.0481 21.0185L3.39995 24.0778C3.42217 24.5926 3.4481 25.1074 3.47032 25.5741C4.64069 26.1 6.09995 26.5444 7.78884 26.9C7.76662 26.3963 7.72958 25.8963 7.71847 25.3926C6.63328 25.1555 5.64069 24.8889 4.76662 24.5963Z" fill="white"/>
<path d="M21.2222 23.1555C21.2222 21.8889 20.4074 21.0629 18.6851 21.0037C17.8222 20.9814 16.6407 20.9333 15.4926 20.8592V20.8629C15.1963 20.8407 14.8888 20.8185 14.5851 20.8C14.5851 23.2037 14.6222 25.5703 14.6926 27.8555C15.2555 27.8926 15.8296 27.9259 16.3296 27.9629C16.3111 27.0444 16.2963 26.1185 16.2814 25.1777C16.3926 25.1852 16.5074 25.1926 16.6185 25.2L19.474 28.0555C19.7148 28.0555 19.9518 28.0555 20.1814 28.0555C20.7074 28.0555 21.2333 28.0555 21.6777 28.0444L18.8555 25.2814C20.4148 25.2777 21.2222 24.4111 21.2222 23.1555ZM19.3926 23.2407C19.3926 23.6 19.1666 23.8629 18.4851 23.874C17.8963 23.8814 17.1074 23.8518 16.2703 23.7963C16.2666 23.3666 16.2629 22.9296 16.2592 22.4963C17.1185 22.5407 17.9296 22.5666 18.4851 22.5851C19.1407 22.6074 19.3926 22.8814 19.3926 23.2407Z" fill="white"/>
<path d="M25.637 20.7148C23.3629 20.7148 21.8926 22.137 21.8926 24.5407C21.8926 26.8741 23.3296 27.8667 25.037 27.8667C27.2 27.8667 28.7074 26.4667 28.7074 23.9926C28.7111 22.0074 27.5148 20.7148 25.637 20.7148ZM26.9778 24.4C26.9185 25.7148 26.2259 26.4926 25.2333 26.4926C24.4333 26.4926 23.7259 25.8963 23.7963 24.2555C23.8555 22.8926 24.5629 22.1852 25.5407 22.1852C26.4629 22.1852 27.0481 22.9296 26.9778 24.4Z" fill="white"/>
<path d="M29.2962 21.9852C29.2851 22.7518 29.274 23.5148 29.237 24.2704L30.8851 22.3555C30.8555 24.0111 30.8036 25.6444 30.7184 27.237C31.1962 27.1518 31.674 27.0704 32.1295 26.9741C32.2629 24.7148 32.3333 22.3815 32.3333 20C32.3333 19.963 32.3333 19.9148 32.3333 19.8815C31.8777 19.9778 31.3999 20.0592 30.911 20.1555L29.2962 21.9852Z" fill="white"/>
</svg>
