<svg width="40" height="40" viewBox="0 0 40 40" fill="none" xmlns="http://www.w3.org/2000/svg">
<g clip-path="url(#clip0_602_10)">
<path d="M19.9954 40.0028C8.96573 40.0028 -0.00463867 31.0287 -0.00463867 19.9991C-0.00463867 8.96943 8.96573 -0.00463867 19.9954 -0.00463867C31.025 -0.00463867 39.9991 8.96943 39.9991 19.9991C39.9991 31.0287 31.025 40.0028 19.9954 40.0028ZM19.9954 0.550917C9.27314 0.550917 0.547213 9.27314 0.547213 19.9991C0.547213 30.725 9.27314 39.4472 19.9991 39.4472C30.725 39.4472 39.4509 30.7213 39.4509 19.9991C39.4509 9.27684 30.7213 0.550917 19.9954 0.550917Z" fill="black"/>
<path d="M13.8555 26.2889C12.4518 26.1629 11.1222 26 9.88886 25.7963C9.87035 25.374 9.85553 24.9518 9.84442 24.5259C10.7147 24.6666 11.6333 24.7889 12.5888 24.8926L12.5666 23.4926C11.6073 23.3889 10.6888 23.2629 9.81109 23.1222C9.80368 22.6889 9.79627 22.2555 9.79257 21.8185C11.0407 22.0259 12.3777 22.1926 13.7888 22.3185C13.7777 21.7926 13.7777 21.2555 13.7777 20.7296C12.3666 20.6037 11.0259 20.4333 9.78146 20.2259C9.66664 20.2074 9.55183 20.1889 9.43701 20.1666C9.41109 20.1629 9.38146 20.1555 9.35553 20.1518C8.98886 20.0889 8.6296 20.0185 8.28516 19.9481C8.28516 19.9592 8.28516 19.9852 8.28516 19.9963C8.28516 20.5111 8.28516 21.0259 8.28516 21.5407C8.28886 21.5407 8.29257 21.5407 8.29257 21.5407C8.31479 23.4111 8.37035 25.2481 8.47405 27.0407C8.79627 27.1037 9.1259 27.1629 9.46294 27.2185C9.6259 27.2481 9.78886 27.274 9.95553 27.3037V27.3C11.1851 27.4963 12.5036 27.6629 13.8888 27.7814C13.8777 27.2926 13.8666 26.7926 13.8555 26.2889Z" fill="black"/>
<path d="M35.837 18.9815C34.6666 18.8963 33.3148 20.2 33.1592 22.7259C33.0407 24.8444 33.5666 26.1333 34.6777 26.1926C36.0407 26.2778 37.3333 24.8518 37.4629 22.2222C37.574 20.2481 36.8666 19.0518 35.837 18.9815ZM36.4592 22.7592C36.3407 23.9666 35.874 24.7926 35.2148 24.7926C34.8185 24.7926 34.4148 24.337 34.5074 22.5926C34.5925 21.1703 35.1296 20.4407 35.6925 20.4407C36.2814 20.4407 36.6037 21.2778 36.4592 22.7592Z" fill="black"/>
<path d="M4.76663 24.5963L7.59996 21.3963C7.59996 20.9296 7.59996 20.4629 7.59996 19.9963C7.59996 19.937 7.59996 19.8629 7.59996 19.8037C5.91478 19.4333 4.46663 18.9889 3.31848 18.537C3.30737 18.9926 3.30737 19.4926 3.30737 19.9963C3.30737 20.0185 3.30737 20.0444 3.30737 20.0815C4.08515 20.4222 5.01107 20.737 6.04811 21.0185L3.39996 24.0778C3.42218 24.5926 3.44811 25.1074 3.47033 25.5741C4.6407 26.1 6.09996 26.5444 7.78885 26.9C7.76663 26.3963 7.72959 25.8963 7.71848 25.3926C6.63329 25.1555 5.6407 24.8889 4.76663 24.5963Z" fill="black"/>
<path d="M21.2223 23.1556C21.2223 21.8889 20.4075 21.0629 18.6852 21.0037C17.8223 20.9814 16.6408 20.9333 15.4927 20.8592V20.8629C15.1964 20.8407 14.8889 20.8185 14.5852 20.8C14.5852 23.2037 14.6223 25.5703 14.6927 27.8555C15.2556 27.8926 15.8297 27.9259 16.3297 27.9629C16.3112 27.0444 16.2964 26.1185 16.2815 25.1777C16.3927 25.1852 16.5075 25.1927 16.6186 25.2001L19.4741 28.0555C19.7149 28.0555 19.9519 28.0555 20.1815 28.0555C20.7075 28.0555 21.2334 28.0555 21.6778 28.0444L18.8556 25.2815C20.4149 25.2778 21.2223 24.4111 21.2223 23.1556ZM19.3927 23.2407C19.3927 23.6 19.1667 23.863 18.4852 23.8741C17.8964 23.8815 17.1075 23.8519 16.2704 23.7964C16.2667 23.3667 16.263 22.9296 16.2593 22.4963C17.1186 22.5407 17.9297 22.5666 18.4852 22.5851C19.1408 22.6074 19.3927 22.8814 19.3927 23.2407Z" fill="black"/>
<path d="M25.637 20.7148C23.3629 20.7148 21.8926 22.137 21.8926 24.5407C21.8926 26.8741 23.3296 27.8667 25.037 27.8667C27.2 27.8667 28.7074 26.4667 28.7074 23.9926C28.7111 22.0074 27.5148 20.7148 25.637 20.7148ZM26.9778 24.4C26.9185 25.7148 26.2259 26.4926 25.2333 26.4926C24.4333 26.4926 23.7259 25.8963 23.7963 24.2555C23.8555 22.8926 24.5629 22.1852 25.5407 22.1852C26.4629 22.1852 27.0481 22.9296 26.9778 24.4Z" fill="black"/>
<path d="M29.2963 21.9852C29.2852 22.7518 29.2741 23.5148 29.2371 24.2704L30.8852 22.3555C30.8556 24.0111 30.8037 25.6444 30.7185 27.237C31.1963 27.1518 31.6741 27.0704 32.1296 26.9741C32.263 24.7148 32.3334 22.3815 32.3334 20C32.3334 19.963 32.3334 19.9148 32.3334 19.8815C31.8778 19.9778 31.4 20.0592 30.9111 20.1555L29.2963 21.9852Z" fill="black"/>
</g>
<defs>
<clipPath id="clip0_602_10">
<rect width="40" height="40" fill="#000"/>
</clipPath>
</defs>
</svg>
